HIERARCHY
ROOT Hips
{
    OFFSET 0.000000 0.000000 0.000000
    CHANNELS 6 Xposition Yposition Zposition Zrotation Xrotation Yrotation
    JOINT Spine
    {
        OFFSET -0.000000 7.236184 0.000000
        CHANNELS 3 Zrotation Xrotation Yrotation
        JOINT Spine1
        {
            OFFSET -0.000000 20.420147 0.000000
            CHANNELS 3 Zrotation Xrotation Yrotation
            JOINT Neck
            {
                OFFSET -0.000000 20.336288 1.848754
                CHANNELS 3 Zrotation Xrotation Yrotation
                JOINT Head
                {
                    OFFSET -0.000000 12.354461 -1.764923
                    CHANNELS 3 Zrotation Xrotation Yrotation
                    End Site
                    {
                        OFFSET -0.000000 22.061537 0.000000
                    }
                }
            }
            JOINT LeftShoulder
            {
                OFFSET 3.573296 18.396038 -0.314103
                CHANNELS 3 Zrotation Xrotation Yrotation
                JOINT LeftArm
                {
                    OFFSET 10.880760 0.000000 0.000000
                    CHANNELS 3 Zrotation Xrotation Yrotation
                    JOINT LeftForeArm
                    {
                        OFFSET 27.185530 0.000000 0.000000
                        CHANNELS 3 Zrotation Xrotation Yrotation
                        JOINT LeftHand
                        {
                            OFFSET 27.825975 0.000000 0.000000
                            CHANNELS 3 Zrotation Xrotation Yrotation
                            End Site
                            {
                                OFFSET 13.236923 0.000000 0.000000
                            }
                        }
                    }
                }
            }
            JOINT RightShoulder
            {
                OFFSET -3.474926 18.396038 -0.314103
                CHANNELS 3 Zrotation Xrotation Yrotation
                JOINT RightArm
                {
                    OFFSET -10.880760 0.000000 0.000000
                    CHANNELS 3 Zrotation Xrotation Yrotation
                    JOINT RightForeArm
                    {
                        OFFSET -27.185530 0.000000 0.000000
                        CHANNELS 3 Zrotation Xrotation Yrotation
                        JOINT RightHand
                        {
                            OFFSET -27.825975 0.000000 0.000000
                            CHANNELS 3 Zrotation Xrotation Yrotation
                            End Site
                            {
                                OFFSET -13.236923 0.000000 0.000000
                            }
                        }
                    }
                }
            }
        }
    }
    JOINT LeftUpLeg
    {
        OFFSET 8.824615 0.000000 0.000000
        CHANNELS 3 Zrotation Xrotation Yrotation
        JOINT LeftLeg
        {
            OFFSET -0.000000 -35.111282 0.000000
            CHANNELS 3 Zrotation Xrotation Yrotation
            JOINT LeftFoot
            {
                OFFSET -0.000000 -42.324711 0.000000
                CHANNELS 3 Zrotation Xrotation Yrotation
                JOINT LeftToeBase
                {
                    OFFSET -0.000000 -5.735999 13.236923
                    CHANNELS 3 Zrotation Xrotation Yrotation
                    End Site
                    {
                        OFFSET -0.000000 0.000000 3.529846
                    }
                }
            }
        }
    }
    JOINT RightUpLeg
    {
        OFFSET -8.824615 0.000000 0.000000
        CHANNELS 3 Zrotation Xrotation Yrotation
        JOINT RightLeg
        {
            OFFSET -0.000000 -35.111282 0.000000
            CHANNELS 3 Zrotation Xrotation Yrotation
            JOINT RightFoot
            {
                OFFSET -0.000000 -42.324711 0.000000
                CHANNELS 3 Zrotation Xrotation Yrotation
                JOINT RightToeBase
                {
                    OFFSET -0.000000 -5.735999 13.236923
                    CHANNELS 3 Zrotation Xrotation Yrotation
                    End Site
                    {
                        OFFSET -0.000000 0.000000 3.529846
                    }
                }
            }
        }
    }
}
MOTION
Frames:    9
Frame Time:    0.008333
-1.134319    80.919014    94.991936    -0.428107    -4.073858    -173.896317    -1.240839    -14.206638    0.759511    -1.007784    7.660798    0.981715    2.223986    4.230923    -3.050330    4.579072    3.701024    -2.914214    0.934500    18.228472    -3.167175    -43.689228    46.483124    -40.390667    -2.835450    -4.750232    -16.582628    16.953800    -4.689664    3.180078    6.908439    19.625992    -3.452740    37.750137    46.567589    42.860344    0.978374    -5.931919    17.065180    -14.679553    -5.503458    -4.480340    3.718745    -2.662967    -0.199112    -2.756579    8.093247    -2.360638    -0.677988    -8.504939    -7.118418    -0.017478    0.054553    0.019372    -3.385876    -0.124641    1.603858    3.277560    6.836271    4.372329    -2.671847    -8.978054    -13.745141    -0.377637    0.284037    0.408285    
-1.144607    80.919151    94.993477    -0.433232    -4.077906    -173.951508    -1.236876    -14.202694    0.755220    -1.023282    7.643034    0.977753    2.218317    4.237977    -3.051129    4.598644    3.689887    -2.911633    0.940860    18.227608    -3.170236    -43.720207    46.485760    -40.355015    -2.826836    -4.712044    -16.586557    17.084398    -4.641935    3.211491    6.908260    19.631609    -3.436357    37.761925    46.562637    42.848839    0.976994    -5.926663    17.056673    -14.679032    -5.496971    -4.487986    3.704123    -2.658958    -0.183172    -2.754990    8.093863    -2.317877    -0.675846    -8.507875    -7.122804    -0.017933    0.053235    0.019876    -3.405632    -0.137001    1.623570    3.284209    6.821049    4.217496    -2.627410    -8.970505    -13.548680    -0.383092    0.286139    0.414181    
-1.155764    80.919357    94.995071    -0.438411    -4.081954    -174.008179    -1.233131    -14.198598    0.751145    -1.038191    7.625081    0.973974    2.213658    4.246047    -3.051810    4.616466    3.678557    -2.909232    0.945165    18.226906    -3.170404    -43.743912    46.491013    -40.325504    -2.819113    -4.673490    -16.589869    17.218132    -4.593721    3.243207    6.908168    19.637003    -3.420660    37.773392    46.558636    42.836479    0.975746    -5.922494    17.049314    -14.678382    -5.491614    -4.495389    3.688586    -2.654896    -0.166162    -2.752965    8.094723    -2.274064    -0.673385    -8.510708    -7.127893    -0.018291    0.052333    0.020273    -3.426452    -0.148625    1.643785    3.290986    6.806142    4.087767    -2.588415    -8.962971    -13.376895    -0.388913    0.289037    0.420474    
-1.167885    80.919678    94.996689    -0.443399    -4.085700    -174.066498    -1.229538    -14.194292    0.747520    -1.052351    7.607349    0.970601    2.210543    4.254806    -3.052595    4.632298    3.666867    -2.907317    0.948280    18.225895    -3.168761    -43.762772    46.498291    -40.300793    -2.812335    -4.636512    -16.592159    17.347435    -4.547568    3.272784    6.908613    19.641565    -3.406293    37.783722    46.556530    42.823204    0.974357    -5.919821    17.043488    -14.677714    -5.487745    -4.502974    3.672411    -2.650540    -0.148102    -2.750584    8.096128    -2.229075    -0.670540    -8.513751    -7.133643    -0.018532    0.051329    0.020541    -3.448179    -0.159042    1.665065    3.298066    6.791220    3.984396    -2.553081    -8.955627    -13.231065    -0.394971    0.292265    0.427021    
-1.180860    80.920097    94.998260    -0.447960    -4.089108    -174.125626    -1.226174    -14.190150    0.744393    -1.065432    7.590480    0.967752    2.209305    4.263768    -3.053569    4.645716    3.655370    -2.906060    0.951195    18.225100    -3.165933    -43.777458    46.506695    -40.281620    -2.806711    -4.603289    -16.593203    17.464399    -4.506258    3.298166    6.909487    19.645653    -3.393842    37.791630    46.556374    42.810390    0.972930    -5.918805    17.039385    -14.677295    -5.485520    -4.510628    3.655875    -2.646075    -0.129102    -2.747763    8.098181    -2.183489    -0.667347    -8.517047    -7.140221    -0.018825    0.050605    0.020865    -3.470423    -0.167922    1.687460    3.305478    6.776237    3.907921    -2.521755    -8.948593    -13.112672    -0.401009    0.296109    0.433546    
-1.194870    80.920639    94.999817    -0.451791    -4.091904    -174.186264    -1.222687    -14.185690    0.741759    -1.077479    7.574056    0.965261    2.210124    4.273457    -3.054663    4.656705    3.643188    -2.905378    0.953956    18.224176    -3.162296    -43.789871    46.515602    -40.266026    -2.802490    -4.573779    -16.593071    17.567789    -4.469844    3.319361    6.911072    19.649229    -3.383095    37.797218    46.558090    42.797543    0.971557    -5.919336    17.036684    -14.677950    -5.484773    -4.518496    3.639136    -2.641314    -0.108676    -2.744343    8.101288    -2.137175    -0.663850    -8.520956    -7.147575    -0.019201    0.049795    0.021282    -3.493036    -0.174994    1.711879    3.313408    6.760550    3.855847    -2.493931    -8.941517    -13.019267    -0.406790    0.299603    0.439795    
-1.209857    80.921310    95.001328    -0.454858    -4.094233    -174.247910    -1.219078    -14.181275    0.739461    -1.088612    7.558285    0.963104    2.213292    4.283668    -3.055745    4.664951    3.630805    -2.905221    0.957239    18.223551    -3.157920    -43.800426    46.524883    -40.254280    -2.799267    -4.548552    -16.591839    17.655903    -4.438899    3.336223    6.913013    19.652113    -3.373641    37.801022    46.561661    42.784424    0.970571    -5.921184    17.035315    -14.681213    -5.485288    -4.526702    3.622379    -2.636442    -0.087270    -2.740608    8.105334    -2.090331    -0.659702    -8.525476    -7.155574    -0.019648    0.049443    0.021777    -3.515867    -0.180152    1.738350    3.321875    6.743845    3.827464    -2.469701    -8.934179    -12.950808    -0.412197    0.303243    0.445638    
-1.225713    80.922089    95.002808    -0.456966    -4.095976    -174.309967    -1.215176    -14.176545    0.737469    -1.098767    7.542969    0.961071    2.218390    4.294209    -3.056761    4.671036    3.618373    -2.905462    0.961334    18.223032    -3.152778    -43.810509    46.534138    -40.245472    -2.796973    -4.527246    -16.589552    17.729145    -4.412989    3.349082    6.915553    19.654539    -3.365744    37.802391    46.567146    42.771820    0.969744    -5.924222    17.035023    -14.687533    -5.486853    -4.535038    3.605905    -2.631500    -0.064962    -2.736531    8.110489    -2.043526    -0.654901    -8.530780    -7.164115    -0.020168    0.049050    0.022354    -3.538363    -0.183390    1.766464    3.330493    6.726331    3.821426    -2.448850    -8.926610    -12.906139    -0.417060    0.306515    0.450894    
-1.242626    80.923004    95.004204    -0.458033    -4.096923    -174.373108    -1.210825    -14.171344    0.735642    -1.107993    7.527876    0.959047    2.225106    4.305206    -3.057677    4.675519    3.606279    -2.905942    0.966020    18.222485    -3.147099    -43.821140    46.543285    -40.238155    -2.795481    -4.509214    -16.586309    17.789745    -4.391400    3.358409    6.918505    19.656588    -3.358661    37.801750    46.574257    42.759190    0.969145    -5.928306    17.035654    -14.696408    -5.489400    -4.543717    3.589693    -2.626034    -0.041441    -2.732143    8.116517    -1.996744    -0.649359    -8.536860    -7.172925    -0.020749    0.048661    0.022998    -3.560232    -0.184543    1.796034    3.338611    6.707790    3.836098    -2.433501    -8.918311    -12.883253    -0.421720    0.310153    0.455930    
